<!-- OpenAI official devicon SVG (2024) -->
<svg xmlns="http://www.w3.org/2000/svg" viewBox="0 0 128 128">
  <g>
    <circle cx="64" cy="64" r="56" fill="#10A37F"/>
    <path d="M104.32 54.68c-2.1.17-4.25-.53-5.87-1.95 1.16-1.73 2.01-3.7 2.35-5.83
      1.09-7.18-4.81-13.88-13.16-14.92-3.47-.42-7.07.41-10.17 2.25-1.5-2.24-3.45-4.2-5.81-5.72-6.15-3.94-13.51-3.37-17.96
      1.33-2.63-2.06-5.8-3.44-9.28-3.86-7.52-.91-14.24 4.84-15.09 12.86-.19 1.73-.07 3.56.33 5.36-2.35.77-4.56 1.97-6.43 3.52-6.16
      5.19-6.42 14.48-.68 20.19 1.14 1.17 2.39 2.14 3.76 2.9-1.15 2.13-1.79 4.5-1.79 6.92 0 8.24 8.01 14.94 16.08 13.36 1.76-.35
      3.57-1.17 5.15-2.32 1.39 2.33 3.28 4.41 5.73 6.07 6.31 4.28 14.99 3.31 19.39-2.4 2.35 1.99 5.32 3.23 8.46 3.62
      8.47 1.08 15.19-6.06 13.98-13.99-.41-2.69-1.7-5.24-3.57-7.19
      2.53-1.21 4.86-3.13 6.64-5.53 4.87-6.12 3.41-14.53-3.36-18.23z" fill="#fff"/>
  </g>
</svg>